{
  "source": "C:\\Users\\Peter\\Desktop\\stuff\\MIUN\\quantitative_research\\video_compression\\videos\\BVI-HD\\BVI-HD_CDVL_videos\\ORIG\\Hamster_1920x1080_60fps.mp4",
  "output": "C:\\Users\\Peter\\Desktop\\stuff\\MIUN\\quantitative_research\\video_compression\\compressed_videos\\BVI-HD\\h264\\3\\Hamster_1920x1080_60fps_h264.mp4",
  "codec": "h264",
  "ok": "Input #0, mov,mp4,m4a,3gp,3g2,mj2, from 'C:\\Users\\Peter\\Desktop\\stuff\\MIUN\\quantitative_research\\video_compression\\videos\\BVI-HD\\BVI-HD_CDVL_videos\\ORIG\\Hamster_1920x1080_60fps.mp4':\n  Metadata:\n    major_brand     : isom\n    minor_version   : 512\n    compatible_brands: isomiso2avc1mp41\n    encoder         : Lavf54.28.101\n  Duration: 00:00:05.00, start: 0.000000, bitrate: 208485 kb/s\n  Stream #0:0[0x1](und): Video: h264 (High 4:4:4 Predictive) (avc1 / 0x31637661), yuv420p(progressive), 1920x1080, 208481 kb/s, 60 fps, 60 tbr, 60 tbn (default)\n    Metadata:\n      handler_name    : VideoHandler\n      vendor_id       : [0][0][0][0]\n[out#0/mp4 @ 000002b99ff19bc0] Codec AVOption b:a (set bitrate (in bits/s)) has not been used for any stream. The most likely reason is either wrong type (e.g. a video option with no video streams) or that it is a private option of some decoder which was not actually used for any stream.\nStream mapping:\n  Stream #0:0 -> #0:0 (h264 (native) -> h264 (libx264))\nPress [q] to stop, [?] for help\n[libx264 @ 000002b9a069ac40] using cpu capabilities: MMX2 SSE2Fast SSSE3 SSE4.2 AVX FMA3 BMI2 AVX2\n[libx264 @ 000002b9a069ac40] profile High, level 5.0, 4:2:0, 8-bit\n[libx264 @ 000002b9a069ac40] 264 - core 165 r3222 b35605a - H.264/MPEG-4 AVC codec - Copyleft 2003-2025 - http://www.videolan.org/x264.html - options: cabac=1 ref=5 deblock=1:0:0 analyse=0x3:0x113 me=hex subme=8 psy=1 psy_rd=1.00:0.00 mixed_ref=1 me_range=16 chroma_me=1 trellis=2 8x8dct=1 cqm=0 deadzone=21,11 fast_pskip=1 chroma_qp_offset=-2 threads=18 lookahead_threads=3 sliced_threads=0 nr=0 decimate=1 interlaced=0 bluray_compat=0 constrained_intra=0 bframes=3 b_pyramid=2 b_adapt=1 b_bias=0 direct=3 weightb=1 open_gop=0 weightp=2 keyint=250 keyint_min=25 scenecut=40 intra_refresh=0 rc_lookahead=50 rc=cbr mbtree=1 bitrate=3000 ratetol=1.0 qcomp=0.60 qpmin=0 qpmax=69 qpstep=4 vbv_maxrate=3000 vbv_bufsize=3000 nal_hrd=none filler=0 ip_ratio=1.40 aq=1:1.00\nOutput #0, mp4, to 'C:\\Users\\Peter\\Desktop\\stuff\\MIUN\\quantitative_research\\video_compression\\compressed_videos\\BVI-HD\\h264\\3\\Hamster_1920x1080_60fps_h264.mp4':\n  Metadata:\n    major_brand     : isom\n    minor_version   : 512\n    compatible_brands: isomiso2avc1mp41\n    encoder         : Lavf62.3.100\n  Stream #0:0(und): Video: h264 (avc1 / 0x31637661), yuv420p(tv, progressive), 1920x1080, q=2-31, 3000 kb/s, 60 fps, 15360 tbn (default)\n    Metadata:\n      encoder         : Lavc62.11.100 libx264\n      handler_name    : VideoHandler\n      vendor_id       : [0][0][0][0]\n    Side data:\n      cpb: bitrate max/min/avg: 3000000/0/3000000 buffer size: 3000000 vbv_delay: N/A\nframe=    0 fps=0.0 q=0.0 size=       0KiB time=N/A bitrate=N/A speed=N/A elapsed=0:00:00.51    \nframe=    0 fps=0.0 q=0.0 size=       0KiB time=N/A bitrate=N/A speed=N/A elapsed=0:00:01.06    \nframe=   24 fps= 15 q=36.0 size=       0KiB time=00:00:00.36 bitrate=   1.0kbits/s speed=0.23x elapsed=0:00:01.59    \nframe=   58 fps= 27 q=36.0 size=     256KiB time=00:00:00.90 bitrate=2330.6kbits/s speed=0.423x elapsed=0:00:02.12    \nframe=   90 fps= 34 q=36.0 size=     256KiB time=00:00:01.40 bitrate=1498.2kbits/s speed=0.523x elapsed=0:00:02.67    \nframe=  120 fps= 37 q=37.0 size=     512KiB time=00:00:01.90 bitrate=2207.7kbits/s speed=0.582x elapsed=0:00:03.26    \nframe=  145 fps= 37 q=37.0 size=     768KiB time=00:00:02.31 bitrate=2715.9kbits/s speed=0.598x elapsed=0:00:03.87    \nframe=  176 fps= 39 q=37.0 size=    1024KiB time=00:00:02.83 bitrate=2960.8kbits/s speed=0.636x elapsed=0:00:04.45    \nframe=  200 fps= 40 q=38.0 size=    1024KiB time=00:00:03.30 bitrate=2542.1kbits/s speed=0.652x elapsed=0:00:05.05    \nframe=  233 fps= 42 q=39.0 size=    1280KiB time=00:00:03.83 bitrate=2735.5kbits/s speed=0.686x elapsed=0:00:05.59    \nframe=  276 fps= 45 q=39.0 size=    1536KiB time=00:00:04.43 bitrate=2838.3kbits/s speed=0.72x elapsed=0:00:06.15    \n[mp4 @ 000002b99ff214c0] Starting second pass: moving the moov atom to the beginning of the file\n[out#0/mp4 @ 000002b99ff19bc0] video:1844KiB audio:0KiB subtitle:0KiB other streams:0KiB global headers:0KiB muxing overhead: 0.235955%\nframe=  300 fps= 47 q=-1.0 Lsize=    1848KiB time=00:00:04.96 bitrate=3048.4kbits/s speed=0.78x elapsed=0:00:06.37    \n[libx264 @ 000002b9a069ac40] frame I:2     Avg QP:32.19  size: 28472\n[libx264 @ 000002b9a069ac40] frame P:76    Avg QP:34.98  size: 10505\n[libx264 @ 000002b9a069ac40] frame B:222   Avg QP:37.93  size:  4649\n[libx264 @ 000002b9a069ac40] consecutive B-frames:  1.0%  0.0%  3.0% 96.0%\n[libx264 @ 000002b9a069ac40] mb I  I16..4: 11.3% 84.5%  4.2%\n[libx264 @ 000002b9a069ac40] mb P  I16..4:  2.8% 12.5%  0.2%  P16..4: 19.5%  1.9%  1.0%  0.0%  0.0%    skip:62.0%\n[libx264 @ 000002b9a069ac40] mb B  I16..4:  0.4%  1.5%  0.0%  B16..8: 20.7%  1.5%  0.1%  direct: 0.5%  skip:75.2%  L0:52.0% L1:46.4% BI: 1.6%\n[libx264 @ 000002b9a069ac40] 8x8 transform intra:80.2% inter:94.3%\n[libx264 @ 000002b9a069ac40] direct mvs  spatial:95.5% temporal:4.5%\n[libx264 @ 000002b9a069ac40] coded y,uvDC,uvAC intra: 25.5% 46.4% 11.8% inter: 2.2% 4.8% 0.1%\n[libx264 @ 000002b9a069ac40] i16 v,h,dc,p: 28% 30%  6% 35%\n[libx264 @ 000002b9a069ac40] i8 v,h,dc,ddl,ddr,vr,hd,vl,hu: 18% 12% 33%  4%  7%  6%  8%  4%  6%\n[libx264 @ 000002b9a069ac40] i4 v,h,dc,ddl,ddr,vr,hd,vl,hu: 12% 15% 19%  9% 14%  8% 13%  5%  6%\n[libx264 @ 000002b9a069ac40] i8c dc,h,v,p: 67% 15% 11%  7%\n[libx264 @ 000002b9a069ac40] Weighted P-Frames: Y:0.0% UV:0.0%\n[libx264 @ 000002b9a069ac40] ref P L0: 45.8% 10.1% 22.2%  9.7% 12.1%\n[libx264 @ 000002b9a069ac40] ref B L0: 69.8% 19.9%  8.1%  2.2%\n[libx264 @ 000002b9a069ac40] ref B L1: 91.2%  8.8%\n[libx264 @ 000002b9a069ac40] kb/s:3019.70\n",
  "seconds": 6.656930446624756,
  "probe_out": {}
}